HIERARCHY
ROOT Root
{
  OFFSET 0.0 0.0 0.0
  CHANNELS 6 Xposition Yposition Zposition Zrotation Yrotation Xrotation
  JOINT Hips
  {
    OFFSET 0.0 100.0 0.0
    CHANNELS 6 Xposition Yposition Zposition Zrotation Yrotation Xrotation
    JOINT Spine1
    {
      OFFSET -0.013727 5.003763 -0.053727
      CHANNELS 3 Zrotation Yrotation Xrotation
      JOINT Spine2
      {
        OFFSET -0.0 7.125301 -0.029825
        CHANNELS 3 Zrotation Yrotation Xrotation
        JOINT Chest
        {
          OFFSET -1e-06 7.550063 -0.815971
          CHANNELS 3 Zrotation Yrotation Xrotation
          JOINT Neck1
          {
            OFFSET -0.181677 26.311295 -0.553348
            CHANNELS 3 Zrotation Yrotation Xrotation
            JOINT Neck2
            {
              OFFSET -3e-06 7.709397 2.302585
              CHANNELS 3 Zrotation Yrotation Xrotation
              JOINT Head
              {
                OFFSET -5e-06 6.128916 1.953709
                CHANNELS 3 Zrotation Yrotation Xrotation
                JOINT HeadEnd
                {
                  OFFSET 0.003598 16.065403 -1.835379
                  CHANNELS 3 Zrotation Yrotation Xrotation
                }
                JOINT Jaw
                {
                  OFFSET 0.002637 0.475592 3.094941
                  CHANNELS 3 Zrotation Yrotation Xrotation
                }
                JOINT LeftEye
                {
                  OFFSET 3.206381 5.380205 7.586883
                  CHANNELS 3 Zrotation Yrotation Xrotation
                }
                JOINT RightEye
                {
                  OFFSET -3.22244 5.361869 7.558234
                  CHANNELS 3 Zrotation Yrotation Xrotation
                }
              }
            }
          }
          JOINT LeftShoulder
          {
            OFFSET 1.621652 23.237164 5.113413
            CHANNELS 3 Zrotation Yrotation Xrotation
            JOINT LeftArm
            {
              OFFSET 14.919846 2e-06 -5.502326
              CHANNELS 3 Zrotation Yrotation Xrotation
              JOINT LeftForeArm
              {
                OFFSET 28.739307 0.0 -0.002588
                CHANNELS 3 Zrotation Yrotation Xrotation
                JOINT LeftHand
                {
                  OFFSET 27.093981 -1e-06 0.002609
                  CHANNELS 3 Zrotation Yrotation Xrotation
                  JOINT LeftHandThumb1
                  {
                    OFFSET 2.276482 -1.392045 3.191413
                    CHANNELS 3 Zrotation Yrotation Xrotation
                    JOINT LeftHandThumb2
                    {
                      OFFSET 4.012836 -1.828127 1.641654
                      CHANNELS 3 Zrotation Yrotation Xrotation
                      JOINT LeftHandThumb3
                      {
                        OFFSET 2.798515 0.0 -3e-06
                        CHANNELS 3 Zrotation Yrotation Xrotation
                        JOINT LeftHandThumbEnd
                        {
                          OFFSET 3.180793 -4e-06 4e-06
                          CHANNELS 3 Zrotation Yrotation Xrotation
                        }
                      }
                    }
                  }
                  JOINT LeftHandIndex1
                  {
                    OFFSET 3.247555 -0.531998 2.296169
                    CHANNELS 3 Zrotation Yrotation Xrotation
                    JOINT LeftHandIndex2
                    {
                      OFFSET 6.364578 0.01206 0.1786
                      CHANNELS 3 Zrotation Yrotation Xrotation
                      JOINT LeftHandIndex3
                      {
                        OFFSET 3.662364 0.0 0.0
                        CHANNELS 3 Zrotation Yrotation Xrotation
                        JOINT LeftHandIndex4
                        {
                          OFFSET 2.329242 4e-06 4e-06
                          CHANNELS 3 Zrotation Yrotation Xrotation
                          JOINT LeftHandIndexEnd
                          {
                            OFFSET 2.759615 -0.180537 -0.113024
                            CHANNELS 3 Zrotation Yrotation Xrotation
                          }
                        }
                      }
                    }
                  }
                  JOINT LeftHandMiddle1
                  {
                    OFFSET 3.163495 0.240981 1.000332
                    CHANNELS 3 Zrotation Yrotation Xrotation
                    JOINT LeftHandMiddle2
                    {
                      OFFSET 6.19078 -0.259278 -1.002548
                      CHANNELS 3 Zrotation Yrotation Xrotation
                      JOINT LeftHandMiddle3
                      {
                        OFFSET 4.35652 -4e-06 -1e-06
                        CHANNELS 3 Zrotation Yrotation Xrotation
                        JOINT LeftHandMiddle4
                        {
                          OFFSET 2.996877 -8e-06 0.0
                          CHANNELS 3 Zrotation Yrotation Xrotation
                          JOINT LeftHandMiddleEnd
                          {
                            OFFSET 2.304287 -0.294569 -0.031741
                            CHANNELS 3 Zrotation Yrotation Xrotation
                          }
                        }
                      }
                    }
                  }
                  JOINT LeftHandRing1
                  {
                    OFFSET 2.882643 -0.053652 -0.322543
                    CHANNELS 3 Zrotation Yrotation Xrotation
                    JOINT LeftHandRing2
                    {
                      OFFSET 5.854541 -0.486202 -1.373841
                      CHANNELS 3 Zrotation Yrotation Xrotation
                      JOINT LeftHandRing3
                      {
                        OFFSET 4.350578 0.0 3e-06
                        CHANNELS 3 Zrotation Yrotation Xrotation
                        JOINT LeftHandRing4
                        {
                          OFFSET 2.651321 7e-06 2e-06
                          CHANNELS 3 Zrotation Yrotation Xrotation
                          JOINT LeftHandRingEnd
                          {
                            OFFSET 1.936105 0.077687 -7.1e-05
                            CHANNELS 3 Zrotation Yrotation Xrotation
                          }
                        }
                      }
                    }
                  }
                  JOINT LeftHandPinky1
                  {
                    OFFSET 2.8655 -0.310005 -1.600378
                    CHANNELS 3 Zrotation Yrotation Xrotation
                    JOINT LeftHandPinky2
                    {
                      OFFSET 5.087849 -1.331141 -1.77123
                      CHANNELS 3 Zrotation Yrotation Xrotation
                      JOINT LeftHandPinky3
                      {
                        OFFSET 3.070974 4e-06 0.0
                        CHANNELS 3 Zrotation Yrotation Xrotation
                        JOINT LeftHandPinky4
                        {
                          OFFSET 1.549672 0.0 1e-06
                          CHANNELS 3 Zrotation Yrotation Xrotation
                          JOINT LeftHandPinkyEnd
                          {
                            OFFSET 1.944893 -0.157802 0.057219
                            CHANNELS 3 Zrotation Yrotation Xrotation
                          }
                        }
                      }
                    }
                  }
                }
              }
            }
          }
          JOINT RightShoulder
          {
            OFFSET -1.380118 23.180309 5.214158
            CHANNELS 3 Zrotation Yrotation Xrotation
            JOINT RightArm
            {
              OFFSET -15.037196 1.2e-05 -5.545604
              CHANNELS 3 Zrotation Yrotation Xrotation
              JOINT RightForeArm
              {
                OFFSET -28.736639 2e-06 -0.002597
                CHANNELS 3 Zrotation Yrotation Xrotation
                JOINT RightHand
                {
                  OFFSET -27.133619 -0.0 0.002613
                  CHANNELS 3 Zrotation Yrotation Xrotation
                  JOINT RightHandThumb1
                  {
                    OFFSET -2.274032 -1.383988 3.163127
                    CHANNELS 3 Zrotation Yrotation Xrotation
                    JOINT RightHandThumb2
                    {
                      OFFSET -4.011429 -1.827466 1.640914
                      CHANNELS 3 Zrotation Yrotation Xrotation
                      JOINT RightHandThumb3
                      {
                        OFFSET -2.794935 -4e-06 -3e-06
                        CHANNELS 3 Zrotation Yrotation Xrotation
                        JOINT RightHandThumbEnd
                        {
                          OFFSET -3.183852 4e-06 1e-06
                          CHANNELS 3 Zrotation Yrotation Xrotation
                        }
                      }
                    }
                  }
                  JOINT RightHandIndex1
                  {
                    OFFSET -3.253266 -0.520057 2.282866
                    CHANNELS 3 Zrotation Yrotation Xrotation
                    JOINT RightHandIndex2
                    {
                      OFFSET -6.341917 0.012471 0.178266
                      CHANNELS 3 Zrotation Yrotation Xrotation
                      JOINT RightHandIndex3
                      {
                        OFFSET -3.654871 -8e-06 -0.0
                        CHANNELS 3 Zrotation Yrotation Xrotation
                        JOINT RightHandIndex4
                        {
                          OFFSET -2.327586 0.0 1e-06
                          CHANNELS 3 Zrotation Yrotation Xrotation
                          JOINT RightHandIndexEnd
                          {
                            OFFSET -2.76179 -0.180656 -0.113078
                            CHANNELS 3 Zrotation Yrotation Xrotation
                          }
                        }
                      }
                    }
                  }
                  JOINT RightHandMiddle1
                  {
                    OFFSET -3.168106 0.246593 1.00103
                    CHANNELS 3 Zrotation Yrotation Xrotation
                    JOINT RightHandMiddle2
                    {
                      OFFSET -6.180828 -0.258836 -1.000895
                      CHANNELS 3 Zrotation Yrotation Xrotation
                      JOINT RightHandMiddle3
                      {
                        OFFSET -4.348901 0.0 -0.0
                        CHANNELS 3 Zrotation Yrotation Xrotation
                        JOINT RightHandMiddle4
                        {
                          OFFSET -3.00024 -4e-06 -2e-06
                          CHANNELS 3 Zrotation Yrotation Xrotation
                          JOINT RightHandMiddleEnd
                          {
                            OFFSET -2.30252 -0.29437 -0.031706
                            CHANNELS 3 Zrotation Yrotation Xrotation
                          }
                        }
                      }
                    }
                  }
                  JOINT RightHandRing1
                  {
                    OFFSET -2.88569 -0.067952 -0.308858
                    CHANNELS 3 Zrotation Yrotation Xrotation
                    JOINT RightHandRing2
                    {
                      OFFSET -5.854198 -0.48613 -1.373731
                      CHANNELS 3 Zrotation Yrotation Xrotation
                      JOINT RightHandRing3
                      {
                        OFFSET -4.33881 -4e-06 -0.0
                        CHANNELS 3 Zrotation Yrotation Xrotation
                        JOINT RightHandRing4
                        {
                          OFFSET -2.654903 -4e-06 4e-06
                          CHANNELS 3 Zrotation Yrotation Xrotation
                          JOINT RightHandRingEnd
                          {
                            OFFSET -1.933568 0.077527 -5.2e-05
                            CHANNELS 3 Zrotation Yrotation Xrotation
                          }
                        }
                      }
                    }
                  }
                  JOINT RightHandPinky1
                  {
                    OFFSET -2.866425 -0.342796 -1.584145
                    CHANNELS 3 Zrotation Yrotation Xrotation
                    JOINT RightHandPinky2
                    {
                      OFFSET -5.091371 -1.332055 -1.772385
                      CHANNELS 3 Zrotation Yrotation Xrotation
                      JOINT RightHandPinky3
                      {
                        OFFSET -3.062664 -4e-06 1e-06
                        CHANNELS 3 Zrotation Yrotation Xrotation
                        JOINT RightHandPinky4
                        {
                          OFFSET -1.546529 4e-06 -2e-06
                          CHANNELS 3 Zrotation Yrotation Xrotation
                          JOINT RightHandPinkyEnd
                          {
                            OFFSET -1.945119 -0.157718 0.057211
                            CHANNELS 3 Zrotation Yrotation Xrotation
                          }
                        }
                      }
                    }
                  }
                }
              }
            }
          }
        }
      }
    }
    JOINT LeftLeg
    {
      OFFSET 10.043214 -8.434526 2.595655
      CHANNELS 3 Zrotation Yrotation Xrotation
      JOINT LeftShin
      {
        OFFSET -1e-06 -43.221752 -0.802913
        CHANNELS 3 Zrotation Yrotation Xrotation
        JOINT LeftFoot
        {
          OFFSET 1e-06 -42.155094 -3.481523
          CHANNELS 3 Zrotation Yrotation Xrotation
          JOINT LeftToeBase
          {
            OFFSET 0.0 -5.059472 13.231529
            CHANNELS 3 Zrotation Yrotation Xrotation
            JOINT LeftToeEnd
            {
              OFFSET -0.009607 -1.647619 6.513017
              CHANNELS 3 Zrotation Yrotation Xrotation
            }
          }
        }
      }
    }
    JOINT RightLeg
    {
      OFFSET -10.047278 -8.29526 2.620317
      CHANNELS 3 Zrotation Yrotation Xrotation
      JOINT RightShin
      {
        OFFSET 1e-06 -43.362206 -0.805556
        CHANNELS 3 Zrotation Yrotation Xrotation
        JOINT RightFoot
        {
          OFFSET 2e-06 -42.117393 -3.478398
          CHANNELS 3 Zrotation Yrotation Xrotation
          JOINT RightToeBase
          {
            OFFSET -0.0 -5.079609 13.284196
            CHANNELS 3 Zrotation Yrotation Xrotation
            JOINT RightToeEnd
            {
              OFFSET 0.009532 -1.634378 6.460591
              CHANNELS 3 Zrotation Yrotation Xrotation
            }
          }
        }
      }
    }
  }
}
MOTION
Frames: 4
Frame Time: 0.03333333333333333
0.0 0.0 0.0 0.0 -0.0 0.0 -1.585179 93.761246 0.637907 -2.030425 -0.904399 2.33609 0.411654 -0.2741 -0.968644 -0.071193 -2.01645 -4.943601 2.690056 -3.068683 13.227617 4.001241 1.045329 -2.178674 -0.73301 0.17887 -3.494505 1.521987 -1.160123 -16.116949 7.7e-05 -2.3e-05 7e-06 -0.001453 -0.018466 0.053649 0.635216 -3.777847 -10.63461 -0.634366 3.752188 -10.623585 -12.742876 -9.798533 13.146873 -56.255035 -14.319552 19.235565 -0.774481 -28.295746 0.322658 7.174045 -2.953472 -6.702026 -5.882109 9.861288 0.702591 -10.936875 -0.360574 7.156209 0.0 8.774826 -1e-06 -16.290945 18.508615 6.247374 -1.844033 2.498504 -2.507277 -10.163602 4.678945 4.621111 -20.976027 -2e-06 3e-06 -21.22629 2.4517 -3.593999 2e-06 -5e-06 -1e-06 -1.362682 2.240799 -0.746323 -21.334921 0.58491 3.008322 -13.821218 -1e-06 1e-06 -23.887178 -0.249077 -0.839483 -61.74371 2.260638 -0.965676 -0.294025 1.679687 0.833258 -14.218213 0.093215 1.300581 -34.212063 -0.287563 0.96717 -20.033224 0.964537 1.212845 0.0 -0.0 1e-06 -3.440389 0.788233 0.501656 -15.928192 -3.167308 2.999706 -6.338828 -1e-06 -0.0 -18.123451 3.648184 -4.905672 -5e-06 1e-06 -2e-06 15.276746 9.833565 13.097916 66.731499 -5.797059 -0.43814 -0.356495 26.169727 0.179575 -2.427203 5.713105 5.16427 2.243541 -5.255037 -3.180158 14.282889 -0.826594 6.952502 -3e-06 -12.690605 1e-06 16.174873 -17.718935 2.3974 1.665666 -1.955921 -2.878298 4.727798 -4.170588 4.993924 11.020526 3e-06 -1e-06 12.109052 -3.735717 -2.866783 1e-06 0.0 0.0 1.291985 -1.928549 -1.498088 14.800129 0.567468 3.865609 14.242572 -1.341736 -6.660656 19.631969 0.143925 -0.648243 49.397129 -0.425659 -6.379627 0.353029 -1.511151 -0.03194 20.222794 3.68431 2.316632 18.787273 4e-06 -1e-06 10.751627 -0.479869 1.397906 1e-06 0.0 0.0 3.273806 0.305948 -0.58011 21.486813 11.830373 2.266133 8.162928 1e-06 1e-06 18.39908 -3.798986 -4.940573 3e-06 0.0 -0.0 1.259816 0.110559 24.477741 0.072623 0.072328 3.181202 1.984699 -2.603412 -6.757805 1.967165 -1.750188 -16.027597 -0.0 -0.0 2e-06 3.261863 -3.110499 -35.044556 -0.027298 0.106527 10.511182 -0.48004 -12.20382 4.424657 -1.284478 1.244757 -7.958435 0.0 0.0 -1e-06 
0.0 0.0 0.0 0.0 -0.0 0.0 -2.211468 93.915298 3.20105 -3.016875 -0.948626 2.982032 0.966065 -0.162501 -1.754652 0.012828 -2.026523 -5.189237 3.149705 -2.974552 12.954934 3.832987 1.198616 -2.29459 -0.760835 0.295104 -3.550071 1.613011 -1.235777 -15.385137 7.7e-05 -2.2e-05 7e-06 -0.021264 -0.045208 0.014958 0.616877 -3.810898 -10.6247 -0.654655 3.727002 -10.590732 -13.433895 -9.263072 13.213085 -56.52174 -13.132224 18.988941 -0.512534 -27.756449 0.148085 6.897692 -3.564348 -7.075963 -5.882108 9.861291 0.702594 -10.936876 -0.360576 7.156208 1e-06 8.774831 -3e-06 -16.377316 18.365288 6.033699 -1.844032 2.498505 -2.507276 -10.163602 4.678947 4.621111 -20.976032 -6e-06 1e-06 -21.226292 2.451694 -3.594003 2e-06 -5e-06 -1e-06 -1.362681 2.2408 -0.746324 -21.334923 0.584909 3.008322 -13.821218 -3e-06 0.0 -23.88718 -0.24908 -0.839484 -61.29467 2.0787 -1.015812 -0.294025 1.679688 0.833257 -14.218215 0.093213 1.300579 -34.212067 -0.287566 0.967169 -20.033226 0.964536 1.212843 -0.0 -0.0 -0.0 -3.44039 0.788234 0.501655 -15.928192 -3.167313 2.999706 -6.338829 -2e-06 1e-06 -18.123459 3.648183 -4.905674 -4e-06 1e-06 -2e-06 16.074385 9.917006 13.146523 65.688042 -5.840574 0.206831 -0.247805 24.554646 0.109376 -1.817884 5.437958 4.951367 2.243542 -5.255038 -3.180158 14.282896 -0.826593 6.952502 -4e-06 -12.690609 2e-06 16.227467 -17.7243 2.324278 1.665667 -1.955922 -2.878298 4.7278 -4.170588 4.993923 11.020531 4e-06 -3e-06 12.109056 -3.735717 -2.866784 0.0 -0.0 0.0 1.291986 -1.92855 -1.498089 14.800136 0.56747 3.865607 14.24258 -1.341735 -6.66066 19.631981 0.143929 -0.648244 49.625336 -0.334936 -6.326379 0.353029 -1.511151 -0.031939 20.222801 3.684313 2.316629 18.787283 8e-06 -2e-06 10.751633 -0.479867 1.397906 1e-06 0.0 0.0 3.273808 0.305947 -0.580111 21.486824 11.830381 2.266132 8.162932 2e-06 -1e-06 18.399092 -3.798983 -4.940577 3e-06 -0.0 -1e-06 3.603324 1.076258 24.412382 0.128217 -0.239238 7.013709 1.182492 -2.716414 -1.770914 2.080781 -1.656428 -22.150871 -0.0 0.0 2e-06 5.075257 -2.162037 -35.134693 -0.021351 0.072978 15.39119 -1.316358 -12.776728 4.627624 -1.344064 1.211912 -8.065581 0.0 0.0 -0.0 
0.0 0.0 0.0 0.0 -0.0 0.0 -3.400465 94.371361 8.362534 -3.854497 -1.147568 3.091593 1.398776 -0.02808 -2.144955 0.120736 -2.11556 -5.401073 3.575013 -2.678411 12.661961 3.5424 1.331774 -2.326169 -0.915736 0.454186 -3.647765 1.707479 -1.379315 -14.53821 7.7e-05 -2.3e-05 6e-06 -0.017483 -0.013202 -0.020039 0.613113 -3.776391 -10.636019 -0.643409 3.75109 -10.593379 -14.071567 -8.595713 13.336017 -57.082485 -11.730164 18.926004 -0.078535 -27.078682 -0.089687 6.482112 -3.822545 -7.616044 -5.882107 9.861285 0.70259 -10.936872 -0.360573 7.156202 -0.0 8.774824 1e-06 -16.568134 18.343092 5.810819 -1.844033 2.498505 -2.507279 -10.163599 4.678945 4.621109 -20.976023 -1e-06 -0.0 -21.226288 2.451698 -3.594001 2e-06 -5e-06 -1e-06 -1.362682 2.240798 -0.746324 -21.334917 0.584912 3.008322 -13.821217 -1e-06 -1e-06 -23.887175 -0.249078 -0.839485 -60.989124 2.038627 -1.212205 -0.294025 1.679688 0.833257 -14.218208 0.093218 1.300579 -34.212051 -0.287563 0.967165 -20.033215 0.964536 1.21284 -0.0 -0.0 -1e-06 -3.440389 0.788234 0.501653 -15.928185 -3.167308 2.999705 -6.338827 0.0 1e-06 -18.123449 3.648183 -4.905673 -4e-06 1e-06 -2e-06 16.5602 10.15116 13.383099 64.809113 -5.712317 0.84438 -0.177726 23.453083 0.03955 -1.483537 4.817885 5.092672 2.243541 -5.255037 -3.180156 14.282887 -0.826594 6.9525 -2e-06 -12.690603 1e-06 16.166899 -17.748709 2.369468 1.665666 -1.955921 -2.878298 4.727798 -4.170587 4.993921 11.020522 2e-06 -3e-06 12.109048 -3.735717 -2.866784 0.0 -0.0 -1e-06 1.291986 -1.928549 -1.498089 14.800125 0.567468 3.865606 14.242571 -1.341737 -6.660657 19.631968 0.143927 -0.648247 49.619598 -0.268947 -6.428073 0.353029 -1.51115 -0.03194 20.222786 3.684309 2.316628 18.78727 5e-06 -2e-06 10.751624 -0.479868 1.397904 1e-06 -1e-06 1e-06 3.273806 0.305947 -0.580112 21.486809 11.830374 2.266131 8.162926 1e-06 -1e-06 18.399078 -3.798985 -4.940576 3e-06 -0.0 -1e-06 5.909588 2.163814 22.177092 0.06079 -0.452155 15.238449 0.21792 -2.641031 6.063696 2.169495 -1.459385 -28.592253 -0.0 0.0 3e-06 6.525075 -0.881241 -33.993912 -0.073431 0.039137 20.142113 -1.91326 -13.722033 5.357097 -1.347322 1.139577 -7.007734 -0.0 0.0 -1e-06 
0.0 0.0 0.0 0.0 -0.0 0.0 -4.608887 94.995377 13.593775 -4.589335 -1.381289 2.439353 1.699083 0.079241 -1.697373 0.297792 -2.046878 -5.318634 3.902576 -2.510341 12.150609 3.303806 1.502518 -2.211623 -0.972262 0.357434 -3.629551 1.624892 -1.04194 -14.263093 7.7e-05 -2.3e-05 6e-06 0.00741 0.043795 -0.020908 0.651762 -3.716395 -10.650387 -0.63335 3.800503 -10.606472 -13.614737 -8.07753 13.393541 -58.690014 -10.635709 18.589592 0.026967 -26.135084 -0.225382 6.076481 -3.82792 -7.311221 -5.882108 9.861289 0.70259 -10.936876 -0.360575 7.156209 1e-06 8.77483 -0.0 -16.673843 18.136005 5.688785 -1.844033 2.498504 -2.507277 -10.163604 4.678947 4.62111 -20.97603 -5e-06 3e-06 -21.226292 2.451697 -3.594001 1e-06 -5e-06 -1e-06 -1.362683 2.240799 -0.746324 -21.334925 0.584909 3.008326 -13.82122 -3e-06 2e-06 -23.88718 -0.249078 -0.839484 -60.830204 2.065368 -1.152142 -0.294025 1.679688 0.833255 -14.218214 0.093215 1.300581 -34.212059 -0.287564 0.967173 -20.033218 0.964539 1.212846 -0.0 0.0 1e-06 -3.440389 0.788233 0.501656 -15.928191 -3.167311 2.999709 -6.338828 -1e-06 1e-06 -18.123453 3.648185 -4.905671 -4e-06 0.0 -3e-06 15.888178 10.547771 13.672537 64.968628 -5.124229 1.264176 -0.287228 23.267282 -0.015728 -1.492692 4.258224 4.332608 2.243542 -5.255038 -3.180157 14.282895 -0.826596 6.952505 -3e-06 -12.690607 3e-06 16.174208 -17.721489 2.409923 1.665667 -1.955922 -2.878299 4.7278 -4.170589 4.993926 11.020529 2e-06 -2e-06 12.109055 -3.735717 -2.866784 0.0 1e-06 0.0 1.291986 -1.92855 -1.498089 14.800132 0.567468 3.86561 14.242577 -1.341737 -6.660658 19.631975 0.143927 -0.648245 49.654488 -0.229786 -6.404373 0.353029 -1.511151 -0.03194 20.222795 3.684309 2.31663 18.787279 4e-06 -1e-06 10.751629 -0.479869 1.397906 1e-06 -0.0 1e-06 3.273808 0.305947 -0.58011 21.486816 11.830376 2.266131 8.162931 1e-06 1e-06 18.399088 -3.798987 -4.940576 3e-06 0.0 -2e-06 7.824265 2.653305 17.789822 -0.05474 -0.538165 27.132599 -1.115272 -1.82591 14.155206 2.110472 -1.419292 -26.275452 0.0 0.0 2e-06 7.845253 -0.187907 -31.659044 -0.092519 -0.001813 24.264072 -2.522149 -14.65197 2.868177 -1.368375 1.077008 -5.502245 -0.0 1e-06 -1e-06 
